<svg xmlns="http://www.w3.org/2000/svg" width="64" height="32" viewBox="0 0 64 32">
    <g fill="none" fill-rule="evenodd">
        <g fill="#0C9">
            <g>
                <g>
                    <g>
                        <g>
                            <g>
                                <path d="M21.95 7.636c0-1.205.952-2.181 2.128-2.181 1.175 0 2.127.976 2.127 2.181 0 1.206-.952 2.182-2.127 2.182-1.176 0-2.127-.976-2.127-2.182zm-12.363.682v1.364c0 .376-.298.682-.665.682-.366 0-.664-.306-.664-.682V8.318h-1.33c-.367 0-.664-.305-.664-.682 0-.376.297-.681.664-.681h1.33V5.59c0-.376.298-.682.664-.682.367 0 .665.306.665.682v1.364h1.33c.366 0 .664.305.664.681 0 .377-.298.682-.664.682h-1.33zM31.395 6.05C31.012 2.602 28.169 0 24.79 0H8.21C4.83 0 1.988 2.602 1.605 6.05L.021 20.36C-.195 22.297 1.286 24 3.19 24h.64c1.102 0 2.123-.58 2.708-1.538l4.379-7.19h11.432l4.38 7.19c.584.957 1.605 1.538 2.706 1.538h.375c1.904 0 3.385-1.702 3.17-3.64L31.394 6.05z" transform="translate(-38.000000, -685.000000) translate(0.000000, 40.000000) translate(0.000000, 511.000000) translate(35.000000, 134.000000) translate(3.000000, 0.000000) translate(16.000000, 6.000000)"/>
                            </g>
                        </g>
                    </g>
                </g>
            </g>
        </g>
    </g>
</svg>
